<?xml version="1.0" encoding="UTF-8"?>
<svg xmlns="http://www.w3.org/2000/svg" width="128" height="128" viewBox="0 0 128 128">
  <title>MD Reader</title>
  <ellipse cx="64" cy="112" rx="47" ry="7" fill="#1f1c1a" opacity="0.2"/>
  <path
    d="M17 28c0-7 5-11 12-11 14 0 27 3 35 9 8-6 21-9 35-9 7 0 12 4 12 11v76c-18-3-34-1-47 6-13-7-29-9-47-6z"
    fill="#643943"
  />
  <path
    d="M21 27c0-5 3-8 8-8 14 0 27 3 35 10v77c-12-7-26-9-43-6z"
    fill="#f8f3e9"
  />
  <path
    d="M64 29c8-7 21-10 35-10 5 0 8 3 8 8v73c-17-3-31-1-43 6z"
    fill="#f8f3e9"
  />
  <path d="M60 28c2 1 3 2 4 3v75c-2-2-4-3-6-4z" fill="#e8ddcb"/>
  <path d="M64 31c1-1 3-2 5-3l2 74c-3 1-5 2-7 4z" fill="#d8cbb8" opacity="0.72"/>
  <path d="M90 21h10v29l-5-4-5 4z" fill="#68705a"/>
  <rect x="29" y="36" width="5" height="51" rx="2.5" fill="#7a4651"/>
  <g fill="#2f2926" opacity="0.72">
    <rect x="41" y="37" width="16" height="4" rx="2"/>
    <rect x="41" y="49" width="13" height="4" rx="2"/>
    <rect x="41" y="61" width="17" height="4" rx="2"/>
    <rect x="41" y="73" width="11" height="4" rx="2"/>
    <rect x="75" y="37" width="10" height="4" rx="2"/>
    <rect x="75" y="49" width="20" height="4" rx="2"/>
    <rect x="75" y="61" width="16" height="4" rx="2"/>
    <rect x="75" y="73" width="21" height="4" rx="2"/>
    <rect x="75" y="85" width="13" height="4" rx="2"/>
  </g>
  <path d="M22 100c16-3 30-1 42 6-13-5-27-6-42-3z" fill="#bba98f" opacity="0.7"/>
  <path d="M64 106c12-7 26-9 42-6v3c-15-3-29-2-42 3z" fill="#bba98f" opacity="0.7"/>
</svg>
